<svg width="490.20000000000005" height="490.20000000000005" xmlns="http://www.w3.org/2000/svg">

 <g>
  <title>background</title>
  <rect fill="none" id="canvas_background" height="402" width="582" y="-1" x="-1"/>
 </g>
 <g>
  <title>Layer 1</title>
  <path fill="#7a916e" id="svg_3" d="m418.5,418.5c95.599976,-95.600006 95.599976,-251.199997 0,-346.799988s-251.199997,-95.599998 -346.799988,0s-95.599998,251.199982 0,346.799988s251.199982,95.599976 346.799988,0zm-329.5,-329.5c86.099991,-86.099998 226.100006,-86.099998 312.200012,0s86.100006,226.100006 0,312.200012s-226.100006,86.100006 -312.200012,0s-86,-226.100006 0,-312.200012z"/>
  <path fill="#7a916e" id="svg_4" d="m245.100006,336.899994c3.399994,0 6.399994,-1.399994 8.699997,-3.600006c2.199997,-2.199982 3.599991,-5.299988 3.599991,-8.699982l0,-67.300018l67.300018,0c3.399994,0 6.399994,-1.399994 8.699982,-3.599991c2.200012,-2.200012 3.600006,-5.300003 3.600006,-8.700012c0,-6.799988 -5.5,-12.299988 -12.199982,-12.199997l-67.300018,0l0,-67.300003c0,-6.800003 -5.5,-12.300003 -12.199997,-12.199997c-6.800003,0 -12.300003,5.5 -12.199997,12.199997l0,67.300003l-67.300003,0c-6.800003,0 -12.300003,5.5 -12.199997,12.199997c0,6.800003 5.5,12.300003 12.199997,12.199997l67.300003,0l0,67.300018c-0.300003,6.899994 5.199997,12.399994 12,12.399994z"/>
 </g>
</svg>